<?xml version="1.0" standalone="no"?>
<!DOCTYPE svg PUBLIC "-//W3C//DTD SVG 20010904//EN"
 "http://www.w3.org/TR/2001/REC-SVG-20010904/DTD/svg10.dtd">
<svg version="1.0" xmlns="http://www.w3.org/2000/svg"
 width="500.000000pt" height="500.000000pt" viewBox="0 0 500.000000 500.000000"
 preserveAspectRatio="xMidYMid meet">

<g transform="translate(0.000000,500.000000) scale(0.100000,-0.100000)"
fill="#000000" stroke="none">
<path d="M2240 4925 c-124 -17 -238 -44 -246 -57 -5 -7 1 -9 17 -5 31 7 181
24 339 37 155 13 463 13 550 0 36 -5 76 -9 90 -9 53 1 -16 17 -139 33 -149 19
-474 20 -611 1z"/>
<path d="M2435 4883 c-22 -3 -45 -9 -51 -14 -7 -5 -86 -14 -177 -19 -199 -12
-202 -12 -442 -94 -467 -158 -677 -271 -894 -482 -58 -57 -109 -104 -112 -104
-10 0 -131 -130 -195 -210 -114 -140 -230 -341 -298 -513 -55 -138 -17 -97 73
81 110 218 186 334 275 422 36 35 66 61 66 56 0 -4 -20 -33 -44 -64 -84 -110
-216 -329 -216 -359 0 -4 19 18 42 50 51 69 70 57 27 -17 -17 -28 -48 -86 -70
-129 -26 -51 -50 -84 -69 -95 -50 -29 -136 -238 -179 -437 -36 -162 -44 -300
-38 -594 4 -152 11 -311 16 -355 13 -99 56 -268 81 -315 28 -53 25 -18 -11
140 -37 163 -59 284 -58 324 0 17 15 -44 34 -135 40 -198 56 -265 97 -390 36
-112 108 -283 116 -275 7 7 73 -114 76 -141 4 -26 55 -121 74 -137 9 -6 3 9
-12 36 -39 65 -27 59 19 -10 47 -73 201 -277 220 -293 7 -6 12 -17 9 -24 -6
-16 218 -246 237 -246 8 1 -26 39 -76 86 -97 92 -88 100 12 11 158 -141 357
-276 527 -358 245 -117 469 -187 726 -226 160 -24 520 -24 678 1 208 32 452
101 610 172 31 14 81 34 110 45 91 31 257 139 421 272 497 403 798 929 891
1557 25 170 46 809 30 929 -38 290 -98 462 -252 720 -105 174 -280 385 -393
474 -31 25 -21 9 44 -68 123 -146 119 -140 101 -129 -9 5 -80 78 -159 162 -78
83 -148 152 -155 152 -6 0 -92 54 -191 121 -308 206 -607 332 -930 389 -167
30 -457 46 -590 33z m14 -199 c35 -29 51 -77 51 -153 0 -44 -6 -64 -32 -105
-31 -47 -33 -57 -32 -131 1 -74 1 -78 -12 -50 -24 53 -17 129 16 195 32 64 36
93 19 153 -12 45 -44 77 -77 77 -55 0 -109 -100 -83 -156 12 -26 41 -33 41 -9
0 20 26 19 34 -1 8 -20 -20 -54 -45 -54 -69 0 -100 88 -63 179 31 78 123 106
183 55z m461 -513 c36 -6 91 -13 123 -16 50 -6 59 -10 72 -36 17 -32 127 -170
190 -237 57 -62 57 -64 40 -137 -20 -89 -95 -235 -121 -235 -6 0 -32 16 -59
35 -27 19 -51 33 -53 31 -2 -3 6 -100 17 -218 12 -117 23 -240 26 -273 3 -33
7 -85 9 -115 3 -30 8 -144 12 -252 l7 -197 -54 -24 c-110 -49 -240 -92 -389
-128 -76 -19 -367 -19 -442 0 l-57 14 -10 51 c-6 28 -19 98 -30 156 -17 89
-77 382 -146 715 -10 44 -20 86 -25 93 -4 10 -24 -13 -59 -68 -30 -47 -56 -79
-61 -74 -5 5 -76 94 -159 198 l-150 189 42 50 c62 73 97 122 157 220 45 74 57
87 80 87 45 0 122 28 194 70 l68 40 67 -50 c235 -178 418 -155 525 64 20 41
36 79 36 85 0 5 19 1 43 -9 23 -10 71 -23 107 -29z m-205 18 c19 -18 -12 -27
-115 -33 -122 -6 -240 -22 -325 -42 -76 -18 -87 -17 -51 3 113 61 448 110 491
72z m-717 -2144 c1 -1 -4 -34 -12 -72 -8 -38 -27 -135 -41 -214 -35 -197 -31
-186 -62 -192 -34 -6 -35 -5 -74 112 l-32 94 -26 -84 c-26 -80 -28 -84 -56
-84 -29 0 -31 3 -47 70 -16 64 -50 276 -45 281 1 2 15 4 32 6 32 3 31 8 49
-144 4 -32 11 -58 15 -58 5 0 16 29 26 65 17 64 18 65 51 65 33 0 33 0 62 -92
l30 -92 10 55 c6 30 21 104 32 164 27 144 24 137 57 129 16 -4 29 -8 31 -9z
m479 -229 c24 -131 42 -241 40 -243 -3 -2 -17 -5 -33 -6 -21 -1 -29 3 -32 18
-1 11 -8 44 -13 73 l-11 53 -50 -3 -51 -3 -17 -50 c-15 -43 -21 -50 -41 -47
-13 1 -26 6 -30 10 -5 5 94 343 126 430 3 8 17 12 37 10 l32 -3 43 -239z
m-297 199 c0 -35 0 -35 -45 -35 l-45 0 0 -65 0 -65 35 0 c32 0 35 -2 35 -29 0
-26 -4 -30 -32 -33 l-33 -3 0 -65 0 -65 48 -3 c46 -3 47 -4 47 -38 l0 -34 -80
0 -80 0 0 235 0 235 75 0 75 0 0 -35z m1082 25 c164 -46 191 -295 45 -410 -34
-27 -90 -50 -122 -50 l-25 0 0 184 c0 101 -3 204 -6 229 -6 42 -5 46 17 50 41
8 53 7 91 -3z m-564 -20 c87 -53 100 -195 23 -264 -21 -19 -21 -19 -2 -40 25
-26 54 -94 46 -106 -4 -6 -18 -10 -33 -10 -22 0 -30 8 -43 39 -9 22 -26 44
-38 50 -20 11 -21 10 -21 -44 0 -54 0 -55 -30 -55 l-30 0 0 225 0 225 48 0
c29 0 59 -8 80 -20z m402 -15 c0 -28 -4 -35 -20 -35 -19 0 -20 -7 -20 -160 0
-153 1 -160 20 -160 16 0 20 -7 20 -32 l0 -33 -68 -1 c-70 -1 -82 6 -82 44 0
15 6 22 20 22 19 0 20 7 20 159 0 150 -1 159 -20 164 -20 5 -28 45 -13 60 3 4
37 7 75 7 l68 0 0 -35z m-215 -301 c18 -18 16 -33 -7 -47 -35 -22 -66 21 -36
51 16 16 23 15 43 -4z m-1132 -466 c2 -49 1 -88 -4 -88 -5 0 -9 15 -9 33 0 17
-3 64 -6 102 -3 45 -2 65 4 55 5 -8 12 -54 15 -102z m1043 67 c14 -25 29 -45
33 -45 3 0 19 21 34 46 15 26 31 44 34 41 3 -3 -8 -28 -25 -56 -21 -33 -32
-66 -34 -98 l-3 -48 -9 50 c-5 28 -22 69 -37 92 -27 38 -36 63 -24 63 2 0 16
-20 31 -45z m-978 -23 c63 32 61 32 80 15 15 -14 23 -15 49 -5 46 17 63 6 65
-44 0 -24 2 -56 3 -71 1 -15 -2 -30 -6 -33 -5 -3 -9 27 -9 65 0 65 -2 71 -21
71 -11 0 -29 -5 -40 -10 -17 -9 -18 -18 -13 -68 4 -42 3 -53 -5 -42 -6 8 -11
32 -11 53 0 48 -15 77 -40 77 -33 0 -52 -41 -46 -101 l6 -54 -15 50 c-8 28
-14 68 -14 90 1 22 3 32 6 22 3 -10 8 -17 11 -15z m326 -4 c20 -28 20 -61 1
-97 -17 -34 -40 -45 -65 -31 -41 22 -44 66 -11 129 15 28 55 27 75 -1z m80 1
c20 22 56 29 56 11 0 -5 -9 -10 -20 -10 -33 0 -52 -42 -45 -97 5 -39 4 -45 -6
-29 -6 10 -13 48 -15 85 -2 37 0 56 4 43 l7 -24 19 21z m170 -1 c20 -28 20
-61 1 -97 -17 -34 -40 -45 -65 -31 -41 22 -44 66 -11 129 15 28 55 27 75 -1z
m261 -29 c0 -19 -7 -25 -40 -32 -51 -12 -52 -13 -30 -37 12 -13 31 -20 54 -20
30 -1 33 -2 18 -11 -44 -26 -97 13 -97 71 0 30 6 43 27 59 23 19 29 20 47 7
12 -7 21 -24 21 -37z m359 29 c20 -28 20 -61 1 -97 -17 -34 -40 -45 -65 -31
-41 22 -44 66 -11 129 15 28 55 27 75 -1z m60 6 c3 -9 6 -33 6 -54 0 -53 8
-70 35 -70 35 0 43 19 36 78 -9 62 4 70 15 10 10 -56 11 -99 2 -105 -5 -2 -8
1 -8 6 0 8 -6 7 -19 -1 -25 -15 -71 3 -72 29 0 10 -4 42 -8 71 -7 50 0 70 13
36z m179 1 c25 17 47 20 47 5 0 -5 -8 -10 -19 -10 -32 0 -46 -29 -44 -89 1
-45 0 -51 -8 -32 -5 14 -12 52 -15 85 -4 48 -3 57 6 43 10 -16 13 -16 33 -2z
m-803 -12 c0 -10 9 -36 19 -58 l18 -40 18 58 c10 31 23 57 28 57 5 0 7 -6 4
-12 -2 -7 -13 -39 -23 -70 -10 -32 -21 -58 -24 -58 -7 0 -45 81 -55 118 -4 13
-2 22 4 22 6 0 11 -8 11 -17z m-260 -304 c0 -6 -9 -8 -21 -4 -11 4 -36 4 -55
0 -31 -5 -34 -9 -34 -40 0 -32 2 -35 30 -35 17 0 30 -4 30 -10 0 -5 -11 -10
-25 -10 -23 0 -25 -4 -26 -47 -1 -73 -15 -24 -22 75 l-5 82 64 0 c39 0 64 -4
64 -11z m304 -30 c5 -22 10 -25 39 -21 44 5 53 -9 61 -88 5 -46 4 -61 -3 -50
-6 8 -11 33 -11 56 0 22 -6 49 -14 59 -12 17 -17 18 -41 7 -27 -13 -28 -14
-21 -74 4 -45 3 -59 -5 -51 -6 6 -12 55 -15 109 -4 96 -2 107 10 53z m146 11
c0 -5 -5 -10 -11 -10 -5 0 -7 5 -4 10 3 6 8 10 11 10 2 0 4 -4 4 -10z m-338
-87 c4 -35 10 -67 13 -73 3 -5 2 -10 -3 -10 -6 0 -13 7 -16 16 -6 16 -8 16
-24 0 -25 -22 -59 -20 -72 3 -30 57 11 136 68 129 25 -3 27 -7 34 -65z m128
56 c0 -6 -8 -8 -18 -5 -10 4 -26 0 -36 -7 -18 -13 -16 -16 25 -38 24 -13 45
-32 47 -42 5 -26 -26 -57 -58 -57 -27 0 -66 31 -54 43 4 3 14 -4 24 -16 15
-19 21 -20 44 -9 39 18 34 48 -14 72 -41 21 -49 37 -28 58 15 15 68 16 68 1z
m354 -11 c20 -28 20 -61 1 -97 -17 -34 -40 -45 -65 -31 -41 22 -44 66 -11 129
15 28 55 27 75 -1z m56 5 c0 -15 1 -15 18 0 46 42 87 7 94 -80 7 -74 -8 -66
-19 8 -10 75 -31 95 -63 63 -23 -23 -26 -42 -15 -96 4 -24 3 -38 -3 -38 -6 0
-13 24 -17 53 -3 28 -8 64 -11 80 -3 16 -1 27 5 27 6 0 11 -7 11 -17z m-186
-78 c4 -43 3 -66 -2 -60 -5 6 -13 42 -16 80 -4 43 -3 66 2 60 5 -5 13 -41 16
-80z"/>
<path d="M3066 4007 c-19 -78 -44 -298 -32 -286 7 7 56 256 56 284 0 31 -16
33 -24 2z"/>
<path d="M1904 3768 c19 -40 43 -103 56 -140 12 -38 26 -68 32 -68 12 0 2 69
-20 125 -17 45 -83 155 -94 155 -4 0 8 -33 26 -72z"/>
<path d="M2361 1853 c-7 -27 -15 -56 -18 -65 -4 -14 1 -18 24 -18 16 0 32 2
35 5 7 7 -13 125 -21 125 -4 0 -13 -21 -20 -47z"/>
<path d="M3212 1825 c2 -85 7 -157 11 -161 11 -12 68 47 88 91 36 78 17 168
-43 205 -61 37 -61 36 -56 -135z"/>
<path d="M2620 1875 c0 -105 8 -115 51 -69 46 49 23 164 -33 164 -16 0 -18 -9
-18 -95z"/>
<path d="M2080 1272 c-28 -23 -34 -89 -8 -105 26 -17 58 17 58 63 0 50 -20 66
-50 42z"/>
<path d="M2330 1272 c-28 -23 -34 -89 -8 -105 26 -17 58 17 58 63 0 50 -20 66
-50 42z"/>
<path d="M2575 1258 c-14 -21 -14 -23 1 -26 8 -2 27 -1 40 2 21 6 23 9 14 26
-14 26 -35 25 -55 -2z"/>
<path d="M2950 1272 c-28 -23 -34 -89 -8 -105 26 -17 58 17 58 63 0 50 -20 66
-50 42z"/>
<path d="M2234 908 c-28 -13 -43 -47 -37 -82 13 -64 73 -27 73 45 0 44 -7 50
-36 37z"/>
<path d="M2720 902 c-28 -23 -34 -89 -8 -105 26 -17 58 17 58 63 0 50 -20 66
-50 42z"/>
<path d="M1685 4776 c-128 -44 -205 -78 -184 -83 14 -3 274 87 309 108 35 20
-29 7 -125 -25z"/>
<path d="M66 2575 c-11 -102 -1 -353 18 -469 20 -121 58 -297 62 -293 2 2 -3
50 -12 107 -8 59 -12 125 -9 154 6 51 -18 276 -32 299 -4 7 -10 73 -13 147
l-6 135 -8 -80z"/>
<path d="M151 1794 c-2 -41 99 -351 135 -411 36 -62 40 -48 8 28 -14 35 -53
138 -85 229 -32 91 -58 160 -58 154z"/>
<path d="M355 1330 c20 -76 205 -415 213 -391 2 6 -14 44 -36 84 -125 228
-183 329 -177 307z"/>
<path d="M1130 414 c0 -22 30 -50 77 -70 31 -14 57 -23 59 -21 2 2 -28 24 -66
50 -39 25 -70 44 -70 41z"/>
<path d="M1343 314 c21 -14 41 -24 43 -21 6 5 -59 47 -72 47 -5 0 9 -12 29
-26z"/>
<path d="M1590 135 c0 -7 58 -35 72 -35 7 1 -3 9 -22 20 -35 19 -50 24 -50 15z"/>
</g>
</svg>
