<?xml version="1.0" standalone="no"?>
<!DOCTYPE svg PUBLIC "-//W3C//DTD SVG 20010904//EN"
 "http://www.w3.org/TR/2001/REC-SVG-20010904/DTD/svg10.dtd">
<svg version="1.0" xmlns="http://www.w3.org/2000/svg"
 width="3000.000000pt" height="3000.000000pt" viewBox="0 0 3000.000000 3000.000000"
 preserveAspectRatio="xMidYMid meet">

<g transform="translate(0.000000,3000.000000) scale(0.100000,-0.100000)"
fill="#000000" stroke="none">
<path d="M14620 29994 c-1549 -50 -2918 -287 -4325 -751 -996 -328 -2002 -784
-2895 -1311 -2202 -1299 -4033 -3130 -5332 -5332 -243 -410 -579 -1062 -761
-1472 -716 -1618 -1127 -3243 -1261 -4988 -55 -714 -55 -1566 0 -2280 134
-1745 545 -3373 1261 -4988 99 -223 393 -816 508 -1027 1213 -2207 2884 -4023
4963 -5389 521 -343 962 -596 1552 -889 1734 -865 3576 -1371 5530 -1521 714
-55 1566 -55 2280 0 1745 134 3373 545 4988 1261 223 99 816 393 1027 508
1941 1067 3570 2479 4872 4226 749 1004 1355 2069 1839 3234 545 1314 910
2762 1053 4190 56 558 75 936 75 1535 0 1034 -87 1932 -280 2915 -313 1587
-881 3108 -1692 4530 -1280 2246 -3171 4159 -5422 5487 -410 243 -1062 579
-1472 761 -1740 770 -3490 1188 -5388 1287 -204 11 -940 20 -1120 14z m5645
-9114 c329 -17 584 -54 874 -126 787 -195 1512 -640 2140 -1314 l121 -129 0
-4306 c0 -2368 -2 -4305 -4 -4305 -2 0 -79 45 -172 101 -217 129 -659 348
-884 437 -1350 535 -2807 579 -4585 138 -816 -202 -1546 -445 -3010 -1001
-1432 -544 -1912 -712 -2565 -900 -1357 -391 -2401 -461 -3335 -225 -784 198
-1500 640 -2124 1310 l-121 129 0 4306 c0 2368 2 4305 4 4305 2 0 79 -45 172
-101 217 -129 659 -348 884 -437 1350 -536 2807 -579 4588 -137 812 201 1544
445 3007 1000 1432 544 1912 712 2565 900 724 209 1365 327 1925 354 236 12
310 12 520 1z"/>
</g>
</svg>
